<?xml version="1.0" encoding="UTF-8" standalone="no"?>
<!DOCTYPE svg PUBLIC "-//W3C//DTD SVG 1.1//EN" "http://www.w3.org/Graphics/SVG/1.1/DTD/svg11.dtd">
<svg width="100%" height="100%" viewBox="0 0 100 100" version="1.1" xmlns="http://www.w3.org/2000/svg" xmlns:xlink="http://www.w3.org/1999/xlink" xml:space="preserve" xmlns:serif="http://www.serif.com/" style="fill-rule:evenodd;clip-rule:evenodd;stroke-linejoin:round;stroke-miterlimit:2;">
    <g transform="matrix(1,0,0,1,-14,-14)">
        <g id="LW-No-Yellow" serif:id="LW No Yellow" transform="matrix(1,0,0,1,3,-6)">
            <g transform="matrix(1,0,0,1,-6.5,16)">
                <path d="M115.45,94.95L108.45,101.95C107.137,103.263 105.357,104 103.5,104L24.5,104C22.643,104 20.863,103.263 19.55,101.95C18.237,100.637 17.5,98.857 17.5,97L17.5,18C17.5,16.143 18.237,14.363 19.55,13.05L26.55,6.05C27.863,4.737 29.643,4 31.5,4L110.5,4C112.357,4 114.137,4.737 115.45,6.05C116.763,7.363 117.5,9.143 117.5,11L117.5,90C117.5,91.857 116.763,93.637 115.45,94.95Z" style="fill: #2e2e2e;"/>
            </g>
            <g transform="matrix(1,0,0,1,0.5,9)">
                <path d="M103.5,14C104.561,14 105.578,14.421 106.328,15.172C107.079,15.922 107.5,16.939 107.5,18L107.5,97C107.5,98.061 107.079,99.078 106.328,99.828C105.578,100.579 104.561,101 103.5,101L24.5,101C23.439,101 22.422,100.579 21.672,99.828C20.921,99.078 20.5,98.061 20.5,97L20.5,18C20.5,16.939 20.921,15.922 21.672,15.172C22.422,14.421 23.439,14 24.5,14L103.5,14Z" style="fill:rgb(255,186,12);"/>
                <path d="M103.5,11C105.357,11 107.137,11.737 108.45,13.05C109.763,14.363 110.5,16.143 110.5,18L110.5,97C110.5,98.857 109.763,100.637 108.45,101.95C107.137,103.263 105.357,104 103.5,104L24.5,104C22.643,104 20.863,103.263 19.55,101.95C18.237,100.637 17.5,98.857 17.5,97L17.5,18C17.5,16.143 18.237,14.363 19.55,13.05C20.863,11.737 22.643,11 24.5,11L103.5,11ZM103.5,14L24.5,14C23.439,14 22.422,14.421 21.672,15.172C20.921,15.922 20.5,16.939 20.5,18L20.5,97C20.5,98.061 20.921,99.078 21.672,99.828C22.422,100.579 23.439,101 24.5,101L103.5,101C104.561,101 105.578,100.579 106.328,99.828C107.079,99.078 107.5,98.061 107.5,97L107.5,18C107.5,16.939 107.079,15.922 106.328,15.172C105.578,14.421 104.561,14 103.5,14Z" style="fill: #2e2e2e;"/>
            </g>
            <g transform="matrix(1.04651,0,0,1,-0.976744,0)">
                <path d="M60.178,23C62.289,23 64,24.791 64,27C64,38.347 64,94.653 64,106C64,108.209 62.289,110 60.178,110C52.019,110 32.981,110 24.822,110C22.711,110 21,108.209 21,106C21,94.653 21,38.347 21,27C21,24.791 22.711,23 24.822,23C32.981,23 52.019,23 60.178,23Z" style="fill:rgb(57,196,177);"/>
                <path d="M60.178,20C63.872,20 66.867,23.134 66.867,27L66.867,106C66.867,109.866 63.872,113 60.178,113L24.822,113C21.128,113 18.133,109.866 18.133,106L18.133,27C18.133,23.134 21.128,20 24.822,20L60.178,20ZM60.178,23L24.822,23C22.711,23 21,24.791 21,27L21,106C21,108.209 22.711,110 24.822,110L60.178,110C62.289,110 64,108.209 64,106L64,27C64,24.791 62.289,23 60.178,23Z" style="fill: #2e2e2e;"/>
            </g>
            <g transform="matrix(1,0,0,1,-5,4.84945e-12)">
                <path d="M57,23C55.939,23 54.922,23.421 54.172,24.172C53.421,24.922 53,25.939 53,27C53,40.862 53,110 53,110L109,110C110.061,110 111.078,109.579 111.828,108.828C112.579,108.078 113,107.061 113,106C113,94.653 113,38.347 113,27C113,25.939 112.579,24.922 111.828,24.172C111.078,23.421 110.061,23 109,23C106.023,23 101.977,23 99,23C96.791,23 95,24.791 95,27C95,36.541 95,84.299 95,90.5C95,91.328 94.328,92 93.5,92C93.102,92 92.721,91.842 92.439,91.561C92.158,91.279 92,90.898 92,90.5C92,86.177 92,74 92,74L78,74C76.939,74 75.922,74.421 75.172,75.172C74.421,75.922 74,76.939 74,78L74,90.5C74,90.898 73.842,91.279 73.561,91.561C73.279,91.842 72.898,92 72.5,92C71.672,92 71,91.328 71,90.5C71,84.299 71,36.541 71,27C71,24.791 69.209,23 67,23C64.023,23 59.977,23 57,23Z" style="fill:rgb(0,151,224);"/>
                <path d="M74,72.255C75.166,71.444 76.56,71 78,71L92,71L92,27C92,23.134 95.134,20 99,20L109,20C110.857,20 112.637,20.737 113.95,22.05C115.263,23.363 116,25.143 116,27L116,106C116,107.857 115.263,109.637 113.95,110.95C112.637,112.263 110.857,113 109,113L50,113L50,27C50,25.143 50.737,23.363 52.05,22.05C53.363,20.737 55.143,20 57,20L67,20C70.866,20 74,23.134 74,27L74,72.255ZM57,23C55.939,23 54.922,23.421 54.172,24.172C53.421,24.922 53,25.939 53,27L53,110L109,110C110.061,110 111.078,109.579 111.828,108.828C112.579,108.078 113,107.061 113,106L113,27C113,25.939 112.579,24.922 111.828,24.172C111.078,23.421 110.061,23 109,23L99,23C96.791,23 95,24.791 95,27L95,90.5C95,91.328 94.328,92 93.5,92C93.102,92 92.721,91.842 92.439,91.561C92.158,91.279 92,90.898 92,90.5L92,74L78,74C76.939,74 75.922,74.421 75.172,75.172C74.421,75.922 74,76.939 74,78L74,90.5C74,90.898 73.842,91.279 73.561,91.561C73.279,91.842 72.898,92 72.5,92C71.672,92 71,91.328 71,90.5L71,27C71,24.791 69.209,23 67,23L57,23Z" style="fill: #2e2e2e;"/>
            </g>
            <path d="M25.003,23C23.941,23 22.923,23.422 22.172,24.172C21.422,24.923 21,25.941 21,27.003C21,38.853 21,91.07 21,106C21,107.061 21.421,108.078 22.172,108.828C22.922,109.579 23.939,110 25,110C35.67,110 64,110 64,110L64,97.003C64,95.941 63.578,94.923 62.828,94.172C62.077,93.422 61.059,93 59.997,93C55.332,93 47.668,93 43.003,93C41.941,93 40.923,92.578 40.172,91.828C39.422,91.077 39,90.059 39,88.997C39,80.289 39,35.711 39,27.003C39,25.941 38.578,24.923 37.828,24.172C37.077,23.422 36.059,23 34.997,23C32.021,23 27.979,23 25.003,23Z" style="fill:rgb(243,58,64);"/>
            <path d="M25.003,20L34.997,20C36.854,20 38.636,20.738 39.949,22.051C41.262,23.364 42,25.146 42,27.003L42,88.997C42,89.263 42.106,89.518 42.294,89.706C42.482,89.894 42.737,90 43.003,90L59.997,90C61.854,90 63.636,90.738 64.949,92.051C66.262,93.364 67,95.146 67,97.003L67,113L25,113C23.144,113 21.363,112.263 20.05,110.95C18.738,109.637 18,107.857 18,106L18,27.003C18,25.146 18.738,23.364 20.051,22.051C21.364,20.738 23.146,20 25.003,20ZM25.003,23C23.941,23 22.923,23.422 22.172,24.172C21.422,24.923 21,25.941 21,27.003L21,106C21,107.061 21.421,108.078 22.172,108.828C22.922,109.579 23.939,110 25,110L64,110L64,97.003C64,95.941 63.578,94.923 62.828,94.172C62.077,93.422 61.059,93 59.997,93L43.003,93C41.941,93 40.923,92.578 40.172,91.828C39.422,91.077 39,90.059 39,88.997L39,27.003C39,25.941 38.578,24.923 37.828,24.172C37.077,23.422 36.059,23 34.997,23L25.003,23Z" style="fill: #2e2e2e;"/>
        </g>
    </g>
</svg>
