<?xml version="1.0" encoding="UTF-8" standalone="no"?>
<!DOCTYPE svg PUBLIC "-//W3C//DTD SVG 1.1//EN" "http://www.w3.org/Graphics/SVG/1.1/DTD/svg11.dtd">
<svg width="250px" height="250px" version="1.1" xmlns="http://www.w3.org/2000/svg" xmlns:xlink="http://www.w3.org/1999/xlink" xml:space="preserve" xmlns:serif="http://www.serif.com/" style="fill-rule:evenodd;clip-rule:evenodd;stroke-linejoin:round;stroke-miterlimit:2;">
    <g transform="matrix(1,0,0,1,-6.61417e-06,0)">
        <g id="path1903" transform="matrix(11.9048,0,0,11.9048,-750,0)">
            <path d="M82.479,0L64.583,0C63.727,0 63,0.677 63,1.511L63,19.488C63,20.323 63.477,21 64.333,21L82.229,21C83.086,21 84,20.323 84,19.488L84,1.511C84,0.677 83.336,0 82.479,0ZM71,8L73.827,8L73.827,9.441L73.858,9.441C74.289,8.664 75.562,7.875 77.136,7.875C80.157,7.875 81,9.479 81,12.45L81,18L78,18L78,12.997C78,11.667 77.469,10.5 76.227,10.5C74.719,10.5 74,11.521 74,13.197L74,18L71,18L71,8ZM66,18L69,18L69,8L66,8L66,18ZM69.375,4.5C69.375,4.5 69.375,4.501 69.375,4.501C69.375,5.529 68.529,6.375 67.501,6.375C66.472,6.375 65.626,5.529 65.626,4.501C65.626,4.501 65.626,4.501 65.626,4.501C65.626,3.473 66.472,2.626 67.501,2.626C68.528,2.626 69.375,3.472 69.375,4.5Z" style="fill:rgb(10,102,194);"/>
        </g>
    </g>
</svg>